<svg xmlns="http://www.w3.org/2000/svg" xmlns:xlink="http://www.w3.org/1999/xlink" width="400" zoomAndPan="magnify" viewBox="0 0 300 187.499995" height="250" preserveAspectRatio="xMidYMid meet" version="1.0"><defs><g/><clipPath id="bfde4c1e92"><path d="M 0.398438 0 L 299.601562 0 L 299.601562 187 L 0.398438 187 Z M 0.398438 0 " clip-rule="nonzero"/></clipPath><clipPath id="95a652f43f"><path d="M 112.601562 41.8125 L 187.398438 41.8125 L 187.398438 116.613281 L 112.601562 116.613281 Z M 112.601562 41.8125 " clip-rule="nonzero"/></clipPath></defs><g clip-path="url(#bfde4c1e92)"><path fill="#ffffff" d="M 0.398438 0 L 299.601562 0 L 299.601562 187 L 0.398438 187 Z M 0.398438 0 " fill-opacity="1" fill-rule="nonzero"/><path fill="#222222" d="M 0.398438 0 L 299.601562 0 L 299.601562 187 L 0.398438 187 Z M 0.398438 0 " fill-opacity="1" fill-rule="nonzero"/></g><g clip-path="url(#95a652f43f)"><path fill="#282828" d="M 187.398438 79.214844 C 187.398438 80.4375 187.339844 81.660156 187.21875 82.878906 C 187.101562 84.097656 186.921875 85.308594 186.679688 86.507812 C 186.441406 87.710938 186.144531 88.898438 185.789062 90.070312 C 185.433594 91.242188 185.023438 92.394531 184.554688 93.527344 C 184.085938 94.65625 183.5625 95.761719 182.984375 96.84375 C 182.40625 97.925781 181.777344 98.972656 181.097656 99.992188 C 180.417969 101.011719 179.6875 101.992188 178.910156 102.941406 C 178.132812 103.886719 177.3125 104.792969 176.445312 105.660156 C 175.578125 106.523438 174.671875 107.347656 173.726562 108.125 C 172.78125 108.902344 171.796875 109.628906 170.777344 110.308594 C 169.761719 110.992188 168.710938 111.621094 167.628906 112.199219 C 166.550781 112.773438 165.445312 113.296875 164.3125 113.765625 C 163.179688 114.234375 162.027344 114.648438 160.855469 115.003906 C 159.683594 115.359375 158.496094 115.65625 157.296875 115.894531 C 156.09375 116.132812 154.886719 116.3125 153.664062 116.433594 C 152.445312 116.554688 151.226562 116.613281 150 116.613281 C 148.773438 116.613281 147.554688 116.554688 146.335938 116.433594 C 145.113281 116.3125 143.90625 116.132812 142.703125 115.894531 C 141.503906 115.65625 140.316406 115.359375 139.144531 115.003906 C 137.972656 114.648438 136.820312 114.234375 135.6875 113.765625 C 134.554688 113.296875 133.449219 112.773438 132.371094 112.199219 C 131.289062 111.621094 130.238281 110.992188 129.222656 110.308594 C 128.203125 109.628906 127.21875 108.902344 126.273438 108.125 C 125.328125 107.347656 124.421875 106.523438 123.554688 105.660156 C 122.6875 104.792969 121.867188 103.886719 121.089844 102.941406 C 120.3125 101.992188 119.582031 101.011719 118.902344 99.992188 C 118.222656 98.972656 117.59375 97.925781 117.015625 96.84375 C 116.4375 95.761719 115.914062 94.65625 115.445312 93.527344 C 114.976562 92.394531 114.566406 91.242188 114.210938 90.070312 C 113.855469 88.898438 113.558594 87.710938 113.320312 86.507812 C 113.078125 85.308594 112.898438 84.097656 112.78125 82.878906 C 112.660156 81.660156 112.601562 80.4375 112.601562 79.214844 C 112.601562 77.988281 112.660156 76.765625 112.78125 75.546875 C 112.898438 74.328125 113.078125 73.117188 113.320312 71.917969 C 113.558594 70.714844 113.855469 69.527344 114.210938 68.355469 C 114.566406 67.183594 114.976562 66.03125 115.445312 64.902344 C 115.914062 63.769531 116.4375 62.664062 117.015625 61.582031 C 117.59375 60.503906 118.222656 59.453125 118.902344 58.433594 C 119.582031 57.417969 120.3125 56.433594 121.089844 55.488281 C 121.867188 54.539062 122.6875 53.632812 123.554688 52.765625 C 124.421875 51.902344 125.328125 51.078125 126.273438 50.300781 C 127.21875 49.523438 128.203125 48.796875 129.222656 48.117188 C 130.238281 47.4375 131.289062 46.804688 132.371094 46.230469 C 133.449219 45.652344 134.554688 45.128906 135.6875 44.660156 C 136.820312 44.191406 137.972656 43.777344 139.144531 43.421875 C 140.316406 43.066406 141.503906 42.769531 142.703125 42.53125 C 143.90625 42.292969 145.113281 42.113281 146.335938 41.992188 C 147.554688 41.871094 148.773438 41.8125 150 41.8125 C 151.226562 41.8125 152.445312 41.871094 153.664062 41.992188 C 154.886719 42.113281 156.09375 42.292969 157.296875 42.53125 C 158.496094 42.769531 159.683594 43.066406 160.855469 43.421875 C 162.027344 43.777344 163.179688 44.191406 164.3125 44.660156 C 165.445312 45.128906 166.550781 45.652344 167.628906 46.230469 C 168.710938 46.804688 169.761719 47.4375 170.777344 48.117188 C 171.796875 48.796875 172.78125 49.523438 173.726562 50.300781 C 174.671875 51.078125 175.578125 51.902344 176.445312 52.765625 C 177.3125 53.632812 178.132812 54.539062 178.910156 55.488281 C 179.6875 56.433594 180.417969 57.417969 181.097656 58.433594 C 181.777344 59.453125 182.40625 60.503906 182.984375 61.582031 C 183.5625 62.664062 184.085938 63.769531 184.554688 64.902344 C 185.023438 66.03125 185.433594 67.183594 185.789062 68.355469 C 186.144531 69.527344 186.441406 70.714844 186.679688 71.917969 C 186.921875 73.117188 187.101562 74.328125 187.21875 75.546875 C 187.339844 76.765625 187.398438 77.988281 187.398438 79.214844 Z M 187.398438 79.214844 " fill-opacity="1" fill-rule="nonzero"/></g><path fill="#86b6f6" d="M 137.582031 56.050781 L 162.5625 56.050781 C 162.757812 56.050781 162.945312 56.085938 163.125 56.160156 C 163.300781 56.234375 163.460938 56.339844 163.597656 56.480469 C 163.734375 56.617188 163.839844 56.773438 163.914062 56.953125 C 163.988281 57.132812 164.023438 57.316406 164.023438 57.511719 L 164.023438 104.277344 C 164.023438 104.472656 163.988281 104.660156 163.914062 104.835938 C 163.839844 105.015625 163.734375 105.175781 163.597656 105.3125 C 163.460938 105.449219 163.300781 105.554688 163.125 105.628906 C 162.945312 105.703125 162.757812 105.738281 162.5625 105.738281 L 137.582031 105.738281 C 137.386719 105.738281 137.203125 105.703125 137.023438 105.628906 C 136.84375 105.554688 136.6875 105.449219 136.550781 105.3125 C 136.410156 105.175781 136.304688 105.015625 136.230469 104.835938 C 136.15625 104.660156 136.121094 104.472656 136.121094 104.277344 L 136.121094 57.511719 C 136.121094 57.316406 136.15625 57.132812 136.230469 56.953125 C 136.304688 56.773438 136.410156 56.617188 136.550781 56.480469 C 136.6875 56.339844 136.84375 56.234375 137.023438 56.160156 C 137.203125 56.085938 137.386719 56.050781 137.582031 56.050781 Z M 137.582031 56.050781 " fill-opacity="1" fill-rule="nonzero"/><path fill="#86b6f6" d="M 143.21875 54.085938 C 143.21875 53.277344 143.875 52.625 144.679688 52.625 L 155.464844 52.625 C 156.273438 52.625 156.925781 53.277344 156.925781 54.085938 L 156.925781 57.03125 L 143.21875 57.03125 Z M 143.21875 54.085938 " fill-opacity="1" fill-rule="nonzero"/><path fill="#4e94f1" d="M 136.121094 78.324219 L 164.023438 78.324219 L 164.023438 104.277344 C 164.023438 105.085938 163.371094 105.738281 162.5625 105.738281 L 137.582031 105.738281 C 136.773438 105.738281 136.121094 105.085938 136.121094 104.277344 Z M 136.121094 78.324219 " fill-opacity="1" fill-rule="nonzero"/><path fill="#ffffff" d="M 154.910156 76.710938 C 154.859375 76.585938 154.785156 76.488281 154.691406 76.429688 C 154.597656 76.371094 154.492188 76.351562 154.394531 76.378906 L 151.761719 77.128906 L 152.578125 70.011719 C 152.589844 69.875 152.574219 69.734375 152.527344 69.613281 C 152.476562 69.492188 152.402344 69.394531 152.3125 69.332031 C 152.21875 69.273438 152.117188 69.253906 152.015625 69.28125 C 151.914062 69.304688 151.824219 69.375 151.753906 69.472656 L 145.0625 79.183594 C 144.992188 79.28125 144.949219 79.410156 144.9375 79.546875 C 144.925781 79.679688 144.945312 79.820312 144.992188 79.9375 C 145.042969 80.058594 145.117188 80.15625 145.210938 80.214844 C 145.300781 80.273438 145.40625 80.289062 145.503906 80.261719 L 148.171875 79.511719 L 147.320312 86.628906 C 147.304688 86.769531 147.320312 86.910156 147.371094 87.03125 C 147.417969 87.15625 147.492188 87.257812 147.585938 87.316406 C 147.675781 87.378906 147.78125 87.394531 147.882812 87.371094 C 147.984375 87.34375 148.074219 87.277344 148.144531 87.175781 L 154.835938 77.464844 C 154.90625 77.367188 154.953125 77.238281 154.964844 77.105469 C 154.976562 76.96875 154.957031 76.828125 154.910156 76.710938 Z M 148.523438 84.742188 L 149.234375 78.773438 C 149.246094 78.679688 149.242188 78.585938 149.222656 78.496094 C 149.203125 78.402344 149.171875 78.320312 149.125 78.246094 C 149.078125 78.175781 149.023438 78.121094 148.957031 78.082031 C 148.894531 78.042969 148.824219 78.023438 148.757812 78.023438 L 148.660156 78.023438 L 146.785156 78.554688 L 151.394531 71.882812 L 150.714844 77.867188 C 150.703125 77.972656 150.710938 78.078125 150.734375 78.175781 C 150.761719 78.277344 150.804688 78.367188 150.859375 78.4375 C 150.914062 78.507812 150.984375 78.5625 151.058594 78.589844 C 151.132812 78.617188 151.210938 78.621094 151.285156 78.597656 L 153.113281 78.082031 Z M 148.523438 84.742188 " fill-opacity="1" fill-rule="nonzero"/><g fill="#8c6fdd" fill-opacity="1"><g transform="translate(70.810006, 141.373373)"><g><path d="M 10.390625 0 L 8.140625 0 L 7.3125 -2.5 L 3.171875 -2.5 L 2.359375 0 L 0.15625 0 L 3.90625 -10.8125 L 6.640625 -10.8125 Z M 5.140625 -8.5625 L 3.75 -4.296875 L 6.734375 -4.296875 L 5.328125 -8.5625 Z M 5.140625 -8.5625 "/></g></g></g><g fill="#8c6fdd" fill-opacity="1"><g transform="translate(81.346739, 141.373373)"><g><path d="M 1.171875 0 L 1.171875 -8.15625 L 3.140625 -8.15625 L 3.140625 -6.96875 L 3.296875 -6.921875 C 3.804688 -7.847656 4.628906 -8.3125 5.765625 -8.3125 C 6.710938 -8.3125 7.40625 -8.054688 7.84375 -7.546875 C 8.289062 -7.035156 8.515625 -6.289062 8.515625 -5.3125 L 8.515625 0 L 6.453125 0 L 6.453125 -5.046875 C 6.453125 -5.597656 6.34375 -5.992188 6.125 -6.234375 C 5.914062 -6.472656 5.570312 -6.59375 5.09375 -6.59375 C 4.5 -6.59375 4.039062 -6.398438 3.71875 -6.015625 C 3.394531 -5.640625 3.234375 -5.039062 3.234375 -4.21875 L 3.234375 0 Z M 1.171875 0 "/></g></g></g><g fill="#8c6fdd" fill-opacity="1"><g transform="translate(90.900035, 141.373373)"><g><path d="M 4.03125 0.15625 C 3.382812 0.15625 2.8125 0 2.3125 -0.3125 C 1.820312 -0.625 1.4375 -1.097656 1.15625 -1.734375 C 0.875 -2.367188 0.734375 -3.148438 0.734375 -4.078125 C 0.734375 -5.003906 0.875 -5.785156 1.15625 -6.421875 C 1.445312 -7.054688 1.847656 -7.53125 2.359375 -7.84375 C 2.867188 -8.15625 3.460938 -8.3125 4.140625 -8.3125 C 4.648438 -8.3125 5.085938 -8.222656 5.453125 -8.046875 C 5.828125 -7.878906 6.144531 -7.609375 6.40625 -7.234375 L 6.5625 -7.28125 L 6.5625 -11.4375 L 8.609375 -11.4375 L 8.609375 0 L 6.5625 0 L 6.5625 -1.0625 L 6.40625 -1.09375 C 6.175781 -0.707031 5.863281 -0.398438 5.46875 -0.171875 C 5.070312 0.046875 4.59375 0.15625 4.03125 0.15625 Z M 4.703125 -1.578125 C 5.273438 -1.578125 5.726562 -1.78125 6.0625 -2.1875 C 6.40625 -2.601562 6.578125 -3.234375 6.578125 -4.078125 C 6.578125 -4.910156 6.40625 -5.535156 6.0625 -5.953125 C 5.726562 -6.367188 5.273438 -6.578125 4.703125 -6.578125 C 4.097656 -6.578125 3.632812 -6.375 3.3125 -5.96875 C 3 -5.570312 2.84375 -4.941406 2.84375 -4.078125 C 2.84375 -3.222656 3 -2.59375 3.3125 -2.1875 C 3.632812 -1.78125 4.097656 -1.578125 4.703125 -1.578125 Z M 4.703125 -1.578125 "/></g></g></g><g fill="#8c6fdd" fill-opacity="1"><g transform="translate(100.675158, 141.373373)"><g><path d="M 1.171875 0 L 1.171875 -8.15625 L 3.171875 -8.15625 L 3.171875 -6.953125 L 3.328125 -6.921875 C 3.523438 -7.367188 3.78125 -7.695312 4.09375 -7.90625 C 4.414062 -8.125 4.804688 -8.234375 5.265625 -8.234375 C 5.734375 -8.234375 6.085938 -8.15625 6.328125 -8 L 5.984375 -6.234375 L 5.828125 -6.203125 C 5.691406 -6.253906 5.5625 -6.289062 5.4375 -6.3125 C 5.3125 -6.34375 5.160156 -6.359375 4.984375 -6.359375 C 4.410156 -6.359375 3.972656 -6.15625 3.671875 -5.75 C 3.378906 -5.351562 3.234375 -4.707031 3.234375 -3.8125 L 3.234375 0 Z M 1.171875 0 "/></g></g></g><g fill="#8c6fdd" fill-opacity="1"><g transform="translate(107.071142, 141.373373)"><g><path d="M 4.75 0.15625 C 3.945312 0.15625 3.242188 -0.00390625 2.640625 -0.328125 C 2.035156 -0.660156 1.566406 -1.144531 1.234375 -1.78125 C 0.898438 -2.414062 0.734375 -3.179688 0.734375 -4.078125 C 0.734375 -4.972656 0.898438 -5.738281 1.234375 -6.375 C 1.566406 -7.007812 2.035156 -7.488281 2.640625 -7.8125 C 3.242188 -8.144531 3.945312 -8.3125 4.75 -8.3125 C 5.539062 -8.3125 6.238281 -8.144531 6.84375 -7.8125 C 7.445312 -7.488281 7.914062 -7.007812 8.25 -6.375 C 8.59375 -5.738281 8.765625 -4.972656 8.765625 -4.078125 C 8.765625 -3.179688 8.59375 -2.414062 8.25 -1.78125 C 7.914062 -1.144531 7.445312 -0.660156 6.84375 -0.328125 C 6.238281 -0.00390625 5.539062 0.15625 4.75 0.15625 Z M 4.75 -1.578125 C 6.007812 -1.578125 6.640625 -2.410156 6.640625 -4.078125 C 6.640625 -4.941406 6.476562 -5.570312 6.15625 -5.96875 C 5.832031 -6.375 5.363281 -6.578125 4.75 -6.578125 C 3.476562 -6.578125 2.84375 -5.742188 2.84375 -4.078125 C 2.84375 -2.410156 3.476562 -1.578125 4.75 -1.578125 Z M 4.75 -1.578125 "/></g></g></g><g fill="#8c6fdd" fill-opacity="1"><g transform="translate(116.550497, 141.373373)"><g><path d="M 2.203125 -9.140625 C 1.828125 -9.140625 1.523438 -9.25 1.296875 -9.46875 C 1.066406 -9.695312 0.953125 -9.988281 0.953125 -10.34375 C 0.953125 -10.695312 1.066406 -10.984375 1.296875 -11.203125 C 1.523438 -11.429688 1.828125 -11.546875 2.203125 -11.546875 C 2.441406 -11.546875 2.65625 -11.492188 2.84375 -11.390625 C 3.039062 -11.285156 3.191406 -11.140625 3.296875 -10.953125 C 3.410156 -10.773438 3.46875 -10.570312 3.46875 -10.34375 C 3.46875 -10.113281 3.410156 -9.90625 3.296875 -9.71875 C 3.191406 -9.539062 3.039062 -9.398438 2.84375 -9.296875 C 2.65625 -9.191406 2.441406 -9.140625 2.203125 -9.140625 Z M 1.171875 0 L 1.171875 -8.15625 L 3.234375 -8.15625 L 3.234375 0 Z M 1.171875 0 "/></g></g></g><g fill="#8c6fdd" fill-opacity="1"><g transform="translate(120.942647, 141.373373)"><g><path d="M 4.03125 0.15625 C 3.382812 0.15625 2.8125 0 2.3125 -0.3125 C 1.820312 -0.625 1.4375 -1.097656 1.15625 -1.734375 C 0.875 -2.367188 0.734375 -3.148438 0.734375 -4.078125 C 0.734375 -5.003906 0.875 -5.785156 1.15625 -6.421875 C 1.445312 -7.054688 1.847656 -7.53125 2.359375 -7.84375 C 2.867188 -8.15625 3.460938 -8.3125 4.140625 -8.3125 C 4.648438 -8.3125 5.085938 -8.222656 5.453125 -8.046875 C 5.828125 -7.878906 6.144531 -7.609375 6.40625 -7.234375 L 6.5625 -7.28125 L 6.5625 -11.4375 L 8.609375 -11.4375 L 8.609375 0 L 6.5625 0 L 6.5625 -1.0625 L 6.40625 -1.09375 C 6.175781 -0.707031 5.863281 -0.398438 5.46875 -0.171875 C 5.070312 0.046875 4.59375 0.15625 4.03125 0.15625 Z M 4.703125 -1.578125 C 5.273438 -1.578125 5.726562 -1.78125 6.0625 -2.1875 C 6.40625 -2.601562 6.578125 -3.234375 6.578125 -4.078125 C 6.578125 -4.910156 6.40625 -5.535156 6.0625 -5.953125 C 5.726562 -6.367188 5.273438 -6.578125 4.703125 -6.578125 C 4.097656 -6.578125 3.632812 -6.375 3.3125 -5.96875 C 3 -5.570312 2.84375 -4.941406 2.84375 -4.078125 C 2.84375 -3.222656 3 -2.59375 3.3125 -2.1875 C 3.632812 -1.78125 4.097656 -1.578125 4.703125 -1.578125 Z M 4.703125 -1.578125 "/></g></g></g><g fill="#8c6fdd" fill-opacity="1"><g transform="translate(130.717769, 141.373373)"><g/></g></g><g fill="#8c6fdd" fill-opacity="1"><g transform="translate(134.289172, 141.373373)"><g><path d="M 1.40625 0 L 1.40625 -10.8125 L 6.03125 -10.8125 C 6.6875 -10.8125 7.242188 -10.707031 7.703125 -10.5 C 8.171875 -10.289062 8.523438 -9.992188 8.765625 -9.609375 C 9.003906 -9.222656 9.125 -8.765625 9.125 -8.234375 C 9.125 -7.753906 9.003906 -7.332031 8.765625 -6.96875 C 8.535156 -6.601562 8.203125 -6.3125 7.765625 -6.09375 L 7.765625 -5.9375 C 8.453125 -5.757812 8.976562 -5.4375 9.34375 -4.96875 C 9.71875 -4.5 9.90625 -3.921875 9.90625 -3.234375 C 9.90625 -2.203125 9.59375 -1.40625 8.96875 -0.84375 C 8.34375 -0.28125 7.414062 0 6.1875 0 Z M 5.578125 -6.5 C 6.578125 -6.5 7.078125 -6.953125 7.078125 -7.859375 C 7.078125 -8.316406 6.953125 -8.65625 6.703125 -8.875 C 6.453125 -9.101562 6.078125 -9.21875 5.578125 -9.21875 L 3.546875 -9.21875 L 3.546875 -6.5 Z M 5.96875 -1.6875 C 7.144531 -1.6875 7.734375 -2.222656 7.734375 -3.296875 C 7.734375 -4.367188 7.144531 -4.90625 5.96875 -4.90625 L 3.546875 -4.90625 L 3.546875 -1.6875 Z M 5.96875 -1.6875 "/></g></g></g><g fill="#8c6fdd" fill-opacity="1"><g transform="translate(144.862868, 141.373373)"><g><path d="M 3.1875 0.15625 C 2.65625 0.15625 2.195312 0.0625 1.8125 -0.125 C 1.4375 -0.320312 1.144531 -0.609375 0.9375 -0.984375 C 0.726562 -1.359375 0.625 -1.804688 0.625 -2.328125 C 0.625 -2.804688 0.726562 -3.207031 0.9375 -3.53125 C 1.144531 -3.863281 1.460938 -4.132812 1.890625 -4.34375 C 2.328125 -4.550781 2.894531 -4.710938 3.59375 -4.828125 C 4.082031 -4.910156 4.453125 -5 4.703125 -5.09375 C 4.960938 -5.1875 5.132812 -5.289062 5.21875 -5.40625 C 5.3125 -5.53125 5.359375 -5.679688 5.359375 -5.859375 C 5.359375 -6.117188 5.265625 -6.316406 5.078125 -6.453125 C 4.898438 -6.597656 4.597656 -6.671875 4.171875 -6.671875 C 3.722656 -6.671875 3.289062 -6.566406 2.875 -6.359375 C 2.46875 -6.160156 2.113281 -5.894531 1.8125 -5.5625 L 1.671875 -5.5625 L 0.8125 -6.859375 C 1.21875 -7.316406 1.71875 -7.671875 2.3125 -7.921875 C 2.914062 -8.179688 3.570312 -8.3125 4.28125 -8.3125 C 5.351562 -8.3125 6.128906 -8.082031 6.609375 -7.625 C 7.097656 -7.164062 7.34375 -6.515625 7.34375 -5.671875 L 7.34375 -2.125 C 7.34375 -1.757812 7.503906 -1.578125 7.828125 -1.578125 C 7.953125 -1.578125 8.070312 -1.601562 8.1875 -1.65625 L 8.296875 -1.625 L 8.4375 -0.1875 C 8.332031 -0.113281 8.175781 -0.0507812 7.96875 0 C 7.769531 0.0390625 7.546875 0.0625 7.296875 0.0625 C 6.816406 0.0625 6.4375 -0.03125 6.15625 -0.21875 C 5.882812 -0.40625 5.691406 -0.703125 5.578125 -1.109375 L 5.421875 -1.125 C 5.015625 -0.269531 4.269531 0.15625 3.1875 0.15625 Z M 3.828125 -1.375 C 4.304688 -1.375 4.6875 -1.53125 4.96875 -1.84375 C 5.25 -2.164062 5.390625 -2.613281 5.390625 -3.1875 L 5.390625 -4.015625 L 5.25 -4.046875 C 5.125 -3.941406 4.960938 -3.851562 4.765625 -3.78125 C 4.566406 -3.71875 4.28125 -3.65625 3.90625 -3.59375 C 3.457031 -3.519531 3.132812 -3.394531 2.9375 -3.21875 C 2.75 -3.039062 2.65625 -2.785156 2.65625 -2.453125 C 2.65625 -2.097656 2.757812 -1.828125 2.96875 -1.640625 C 3.175781 -1.460938 3.460938 -1.375 3.828125 -1.375 Z M 3.828125 -1.375 "/></g></g></g><g fill="#8c6fdd" fill-opacity="1"><g transform="translate(153.462322, 141.373373)"><g><path d="M 5.625 -1.953125 L 6.171875 -0.421875 C 5.941406 -0.242188 5.660156 -0.101562 5.328125 0 C 4.992188 0.101562 4.613281 0.15625 4.1875 0.15625 C 3.300781 0.15625 2.628906 -0.0820312 2.171875 -0.5625 C 1.710938 -1.039062 1.484375 -1.742188 1.484375 -2.671875 L 1.484375 -6.546875 L 0.25 -6.546875 L 0.25 -8.171875 L 1.484375 -8.171875 L 1.484375 -9.765625 L 3.53125 -10.09375 L 3.53125 -8.171875 L 5.859375 -8.171875 L 5.859375 -6.546875 L 3.53125 -6.546875 L 3.53125 -2.8125 C 3.53125 -2.40625 3.613281 -2.109375 3.78125 -1.921875 C 3.957031 -1.742188 4.203125 -1.65625 4.515625 -1.65625 C 4.878906 -1.65625 5.195312 -1.753906 5.46875 -1.953125 Z M 5.625 -1.953125 "/></g></g></g><g fill="#8c6fdd" fill-opacity="1"><g transform="translate(159.799153, 141.373373)"><g><path d="M 5.625 -1.953125 L 6.171875 -0.421875 C 5.941406 -0.242188 5.660156 -0.101562 5.328125 0 C 4.992188 0.101562 4.613281 0.15625 4.1875 0.15625 C 3.300781 0.15625 2.628906 -0.0820312 2.171875 -0.5625 C 1.710938 -1.039062 1.484375 -1.742188 1.484375 -2.671875 L 1.484375 -6.546875 L 0.25 -6.546875 L 0.25 -8.171875 L 1.484375 -8.171875 L 1.484375 -9.765625 L 3.53125 -10.09375 L 3.53125 -8.171875 L 5.859375 -8.171875 L 5.859375 -6.546875 L 3.53125 -6.546875 L 3.53125 -2.8125 C 3.53125 -2.40625 3.613281 -2.109375 3.78125 -1.921875 C 3.957031 -1.742188 4.203125 -1.65625 4.515625 -1.65625 C 4.878906 -1.65625 5.195312 -1.753906 5.46875 -1.953125 Z M 5.625 -1.953125 "/></g></g></g><g fill="#8c6fdd" fill-opacity="1"><g transform="translate(166.135984, 141.373373)"><g><path d="M 8.0625 -3.625 L 2.8125 -3.625 C 2.875 -2.90625 3.078125 -2.382812 3.421875 -2.0625 C 3.765625 -1.738281 4.238281 -1.578125 4.84375 -1.578125 C 5.3125 -1.578125 5.691406 -1.664062 5.984375 -1.84375 C 6.273438 -2.019531 6.507812 -2.285156 6.6875 -2.640625 L 6.84375 -2.640625 L 8.203125 -1.765625 C 7.929688 -1.191406 7.523438 -0.726562 6.984375 -0.375 C 6.453125 -0.0195312 5.738281 0.15625 4.84375 0.15625 C 4 0.15625 3.269531 -0.00390625 2.65625 -0.328125 C 2.039062 -0.648438 1.566406 -1.125 1.234375 -1.75 C 0.898438 -2.382812 0.734375 -3.160156 0.734375 -4.078125 C 0.734375 -5.003906 0.90625 -5.785156 1.25 -6.421875 C 1.601562 -7.054688 2.078125 -7.53125 2.671875 -7.84375 C 3.273438 -8.15625 3.945312 -8.3125 4.6875 -8.3125 C 5.84375 -8.3125 6.726562 -8.003906 7.34375 -7.390625 C 7.957031 -6.785156 8.265625 -5.890625 8.265625 -4.703125 C 8.265625 -4.273438 8.25 -3.941406 8.21875 -3.703125 Z M 6.3125 -4.9375 C 6.289062 -5.5625 6.144531 -6.015625 5.875 -6.296875 C 5.601562 -6.585938 5.207031 -6.734375 4.6875 -6.734375 C 3.65625 -6.734375 3.046875 -6.132812 2.859375 -4.9375 Z M 6.3125 -4.9375 "/></g></g></g><g fill="#8c6fdd" fill-opacity="1"><g transform="translate(175.001628, 141.373373)"><g><path d="M 1.171875 0 L 1.171875 -8.15625 L 3.171875 -8.15625 L 3.171875 -6.953125 L 3.328125 -6.921875 C 3.523438 -7.367188 3.78125 -7.695312 4.09375 -7.90625 C 4.414062 -8.125 4.804688 -8.234375 5.265625 -8.234375 C 5.734375 -8.234375 6.085938 -8.15625 6.328125 -8 L 5.984375 -6.234375 L 5.828125 -6.203125 C 5.691406 -6.253906 5.5625 -6.289062 5.4375 -6.3125 C 5.3125 -6.34375 5.160156 -6.359375 4.984375 -6.359375 C 4.410156 -6.359375 3.972656 -6.15625 3.671875 -5.75 C 3.378906 -5.351562 3.234375 -4.707031 3.234375 -3.8125 L 3.234375 0 Z M 1.171875 0 "/></g></g></g><g fill="#8c6fdd" fill-opacity="1"><g transform="translate(181.397613, 141.373373)"><g><path d="M 1.8125 3.46875 C 1.457031 3.46875 1.132812 3.4375 0.84375 3.375 C 0.5625 3.320312 0.332031 3.253906 0.15625 3.171875 L 0.484375 1.515625 L 0.625 1.46875 C 0.75 1.53125 0.898438 1.582031 1.078125 1.625 C 1.265625 1.664062 1.453125 1.6875 1.640625 1.6875 C 1.972656 1.6875 2.25 1.640625 2.46875 1.546875 C 2.6875 1.460938 2.867188 1.320312 3.015625 1.125 C 3.171875 0.925781 3.3125 0.644531 3.4375 0.28125 L 0.171875 -8.15625 L 2.328125 -8.15625 L 4.34375 -2.484375 L 4.53125 -2.484375 L 6.5 -8.15625 L 8.59375 -8.15625 L 5.3125 0.515625 C 5.050781 1.210938 4.765625 1.773438 4.453125 2.203125 C 4.140625 2.628906 3.769531 2.945312 3.34375 3.15625 C 2.914062 3.363281 2.40625 3.46875 1.8125 3.46875 Z M 1.8125 3.46875 "/></g></g></g><g fill="#8c6fdd" fill-opacity="1"><g transform="translate(190.152337, 141.373373)"><g/></g></g><g fill="#8c6fdd" fill-opacity="1"><g transform="translate(193.72374, 141.373373)"><g><path d="M 6.4375 0 L 3.84375 0 L 0.1875 -10.8125 L 2.46875 -10.8125 L 5.09375 -2.75 L 5.28125 -2.75 L 7.859375 -10.8125 L 10.078125 -10.8125 Z M 6.4375 0 "/></g></g></g><g fill="#8c6fdd" fill-opacity="1"><g transform="translate(203.986879, 141.373373)"><g><path d="M 2.203125 -9.140625 C 1.828125 -9.140625 1.523438 -9.25 1.296875 -9.46875 C 1.066406 -9.695312 0.953125 -9.988281 0.953125 -10.34375 C 0.953125 -10.695312 1.066406 -10.984375 1.296875 -11.203125 C 1.523438 -11.429688 1.828125 -11.546875 2.203125 -11.546875 C 2.441406 -11.546875 2.65625 -11.492188 2.84375 -11.390625 C 3.039062 -11.285156 3.191406 -11.140625 3.296875 -10.953125 C 3.410156 -10.773438 3.46875 -10.570312 3.46875 -10.34375 C 3.46875 -10.113281 3.410156 -9.90625 3.296875 -9.71875 C 3.191406 -9.539062 3.039062 -9.398438 2.84375 -9.296875 C 2.65625 -9.191406 2.441406 -9.140625 2.203125 -9.140625 Z M 1.171875 0 L 1.171875 -8.15625 L 3.234375 -8.15625 L 3.234375 0 Z M 1.171875 0 "/></g></g></g><g fill="#8c6fdd" fill-opacity="1"><g transform="translate(208.379029, 141.373373)"><g><path d="M 8.0625 -3.625 L 2.8125 -3.625 C 2.875 -2.90625 3.078125 -2.382812 3.421875 -2.0625 C 3.765625 -1.738281 4.238281 -1.578125 4.84375 -1.578125 C 5.3125 -1.578125 5.691406 -1.664062 5.984375 -1.84375 C 6.273438 -2.019531 6.507812 -2.285156 6.6875 -2.640625 L 6.84375 -2.640625 L 8.203125 -1.765625 C 7.929688 -1.191406 7.523438 -0.726562 6.984375 -0.375 C 6.453125 -0.0195312 5.738281 0.15625 4.84375 0.15625 C 4 0.15625 3.269531 -0.00390625 2.65625 -0.328125 C 2.039062 -0.648438 1.566406 -1.125 1.234375 -1.75 C 0.898438 -2.382812 0.734375 -3.160156 0.734375 -4.078125 C 0.734375 -5.003906 0.90625 -5.785156 1.25 -6.421875 C 1.601562 -7.054688 2.078125 -7.53125 2.671875 -7.84375 C 3.273438 -8.15625 3.945312 -8.3125 4.6875 -8.3125 C 5.84375 -8.3125 6.726562 -8.003906 7.34375 -7.390625 C 7.957031 -6.785156 8.265625 -5.890625 8.265625 -4.703125 C 8.265625 -4.273438 8.25 -3.941406 8.21875 -3.703125 Z M 6.3125 -4.9375 C 6.289062 -5.5625 6.144531 -6.015625 5.875 -6.296875 C 5.601562 -6.585938 5.207031 -6.734375 4.6875 -6.734375 C 3.65625 -6.734375 3.046875 -6.132812 2.859375 -4.9375 Z M 6.3125 -4.9375 "/></g></g></g><g fill="#8c6fdd" fill-opacity="1"><g transform="translate(217.244674, 141.373373)"><g><path d="M 4.375 0 L 2.234375 0 L 0.296875 -8.15625 L 2.203125 -8.15625 L 3.390625 -2.640625 L 3.546875 -2.640625 L 5.109375 -8.15625 L 6.875 -8.15625 L 8.484375 -2.640625 L 8.640625 -2.640625 L 9.796875 -8.15625 L 11.640625 -8.15625 L 9.734375 0 L 7.578125 0 L 6.03125 -5.5625 L 5.875 -5.5625 Z M 4.375 0 "/></g></g></g></svg>