<svg xmlns="http://www.w3.org/2000/svg" xmlns:xlink="http://www.w3.org/1999/xlink" width="400" zoomAndPan="magnify" viewBox="0 0 300 187.499995" height="250" preserveAspectRatio="xMidYMid meet" version="1.0"><defs><g/><clipPath id="62e2e931a6"><path d="M 0.398438 0 L 299.601562 0 L 299.601562 187 L 0.398438 187 Z M 0.398438 0 " clip-rule="nonzero"/></clipPath></defs><g clip-path="url(#62e2e931a6)"><path fill="#ffffff" d="M 0.398438 0 L 299.601562 0 L 299.601562 187 L 0.398438 187 Z M 0.398438 0 " fill-opacity="1" fill-rule="nonzero"/><path fill="#222222" d="M 0.398438 0 L 299.601562 0 L 299.601562 187 L 0.398438 187 Z M 0.398438 0 " fill-opacity="1" fill-rule="nonzero"/></g><path fill="#bca8f4" d="M 185.273438 86.925781 C 185.273438 88.097656 185.214844 89.261719 185.101562 90.425781 C 184.984375 91.589844 184.8125 92.746094 184.585938 93.890625 C 184.359375 95.039062 184.074219 96.171875 183.734375 97.289062 C 183.394531 98.410156 183 99.507812 182.554688 100.589844 C 182.105469 101.667969 181.609375 102.722656 181.054688 103.753906 C 180.503906 104.785156 179.90625 105.789062 179.253906 106.757812 C 178.605469 107.730469 177.910156 108.667969 177.167969 109.574219 C 176.425781 110.476562 175.640625 111.34375 174.816406 112.167969 C 173.988281 112.996094 173.125 113.78125 172.21875 114.523438 C 171.316406 115.261719 170.378906 115.960938 169.40625 116.609375 C 168.433594 117.257812 167.433594 117.859375 166.402344 118.410156 C 165.371094 118.960938 164.316406 119.460938 163.234375 119.90625 C 162.152344 120.355469 161.054688 120.75 159.9375 121.089844 C 158.816406 121.425781 157.683594 121.710938 156.539062 121.9375 C 155.390625 122.167969 154.234375 122.339844 153.074219 122.453125 C 151.910156 122.566406 150.742188 122.625 149.574219 122.625 C 148.402344 122.625 147.238281 122.566406 146.074219 122.453125 C 144.910156 122.339844 143.753906 122.167969 142.609375 121.9375 C 141.460938 121.710938 140.328125 121.425781 139.210938 121.089844 C 138.09375 120.75 136.992188 120.355469 135.914062 119.90625 C 134.832031 119.460938 133.777344 118.960938 132.746094 118.410156 C 131.714844 117.859375 130.710938 117.257812 129.742188 116.609375 C 128.769531 115.960938 127.832031 115.261719 126.925781 114.523438 C 126.023438 113.78125 125.15625 112.996094 124.332031 112.167969 C 123.503906 111.34375 122.71875 110.476562 121.976562 109.574219 C 121.238281 108.667969 120.539062 107.730469 119.890625 106.757812 C 119.242188 105.789062 118.640625 104.785156 118.089844 103.753906 C 117.539062 102.722656 117.039062 101.667969 116.59375 100.589844 C 116.144531 99.507812 115.75 98.410156 115.414062 97.289062 C 115.074219 96.171875 114.789062 95.039062 114.5625 93.890625 C 114.332031 92.746094 114.160156 91.589844 114.046875 90.425781 C 113.933594 89.261719 113.875 88.097656 113.875 86.925781 C 113.875 85.757812 113.933594 84.589844 114.046875 83.429688 C 114.160156 82.265625 114.332031 81.109375 114.5625 79.960938 C 114.789062 78.816406 115.074219 77.683594 115.414062 76.5625 C 115.75 75.445312 116.144531 74.347656 116.59375 73.265625 C 117.039062 72.183594 117.539062 71.128906 118.089844 70.097656 C 118.640625 69.066406 119.242188 68.066406 119.890625 67.09375 C 120.539062 66.121094 121.238281 65.183594 121.976562 64.28125 C 122.71875 63.375 123.503906 62.511719 124.332031 61.683594 C 125.15625 60.859375 126.023438 60.074219 126.925781 59.332031 C 127.832031 58.589844 128.769531 57.894531 129.742188 57.246094 C 130.710938 56.59375 131.714844 55.996094 132.746094 55.445312 C 133.777344 54.894531 134.832031 54.394531 135.914062 53.945312 C 136.992188 53.5 138.09375 53.105469 139.210938 52.765625 C 140.328125 52.425781 141.460938 52.144531 142.609375 51.914062 C 143.753906 51.6875 144.910156 51.515625 146.074219 51.402344 C 147.238281 51.285156 148.402344 51.230469 149.574219 51.230469 C 150.742188 51.230469 151.910156 51.285156 153.074219 51.402344 C 154.234375 51.515625 155.390625 51.6875 156.539062 51.914062 C 157.683594 52.144531 158.816406 52.425781 159.9375 52.765625 C 161.054688 53.105469 162.152344 53.5 163.234375 53.945312 C 164.316406 54.394531 165.371094 54.894531 166.402344 55.445312 C 167.433594 55.996094 168.433594 56.59375 169.40625 57.246094 C 170.378906 57.894531 171.316406 58.589844 172.21875 59.332031 C 173.125 60.074219 173.988281 60.859375 174.816406 61.683594 C 175.640625 62.511719 176.425781 63.375 177.167969 64.28125 C 177.910156 65.183594 178.605469 66.121094 179.253906 67.09375 C 179.90625 68.066406 180.503906 69.066406 181.054688 70.097656 C 181.609375 71.128906 182.105469 72.183594 182.554688 73.265625 C 183 74.347656 183.394531 75.445312 183.734375 76.5625 C 184.074219 77.683594 184.359375 78.816406 184.585938 79.960938 C 184.8125 81.109375 184.984375 82.265625 185.101562 83.429688 C 185.214844 84.589844 185.273438 85.757812 185.273438 86.925781 Z M 185.273438 86.925781 " fill-opacity="1" fill-rule="nonzero"/><path fill="#8062d6" d="M 113.085938 103.691406 C 113.085938 103.953125 113.035156 104.203125 112.9375 104.445312 C 112.835938 104.6875 112.695312 104.902344 112.507812 105.085938 C 112.324219 105.269531 112.109375 105.414062 111.867188 105.511719 C 111.628906 105.613281 111.375 105.664062 111.113281 105.664062 C 110.851562 105.664062 110.601562 105.613281 110.359375 105.511719 C 110.117188 105.414062 109.902344 105.269531 109.71875 105.085938 C 109.535156 104.902344 109.390625 104.6875 109.292969 104.445312 C 109.191406 104.203125 109.140625 103.953125 109.140625 103.691406 C 109.140625 103.429688 109.191406 103.179688 109.292969 102.9375 C 109.390625 102.695312 109.535156 102.480469 109.71875 102.296875 C 109.902344 102.113281 110.117188 101.96875 110.359375 101.867188 C 110.601562 101.769531 110.851562 101.71875 111.113281 101.71875 C 111.375 101.71875 111.628906 101.769531 111.867188 101.867188 C 112.109375 101.96875 112.324219 102.113281 112.507812 102.296875 C 112.695312 102.480469 112.835938 102.695312 112.9375 102.9375 C 113.035156 103.179688 113.085938 103.429688 113.085938 103.691406 Z M 113.085938 103.691406 " fill-opacity="1" fill-rule="nonzero"/><path fill="#8062d6" d="M 110.324219 95.011719 C 110.324219 95.273438 110.273438 95.527344 110.175781 95.769531 C 110.074219 96.007812 109.933594 96.222656 109.746094 96.40625 C 109.5625 96.59375 109.347656 96.734375 109.109375 96.835938 C 108.867188 96.933594 108.613281 96.984375 108.351562 96.984375 C 108.089844 96.984375 107.839844 96.933594 107.597656 96.835938 C 107.355469 96.734375 107.144531 96.59375 106.957031 96.40625 C 106.773438 96.222656 106.628906 96.007812 106.53125 95.769531 C 106.429688 95.527344 106.378906 95.273438 106.378906 95.011719 C 106.378906 94.75 106.429688 94.5 106.53125 94.257812 C 106.628906 94.015625 106.773438 93.804688 106.957031 93.617188 C 107.144531 93.433594 107.355469 93.292969 107.597656 93.191406 C 107.839844 93.089844 108.089844 93.039062 108.351562 93.039062 C 108.613281 93.039062 108.867188 93.089844 109.109375 93.191406 C 109.347656 93.292969 109.5625 93.433594 109.746094 93.617188 C 109.933594 93.804688 110.074219 94.015625 110.175781 94.257812 C 110.273438 94.5 110.324219 94.75 110.324219 95.011719 Z M 110.324219 95.011719 " fill-opacity="1" fill-rule="nonzero"/><path fill="#8062d6" d="M 110.71875 77.65625 C 110.71875 77.917969 110.667969 78.171875 110.570312 78.410156 C 110.46875 78.652344 110.328125 78.867188 110.140625 79.050781 C 109.957031 79.238281 109.742188 79.378906 109.5 79.480469 C 109.261719 79.578125 109.007812 79.628906 108.746094 79.628906 C 108.484375 79.628906 108.234375 79.578125 107.992188 79.480469 C 107.75 79.378906 107.539062 79.238281 107.351562 79.050781 C 107.167969 78.867188 107.023438 78.652344 106.925781 78.410156 C 106.824219 78.171875 106.773438 77.917969 106.773438 77.65625 C 106.773438 77.394531 106.824219 77.144531 106.925781 76.902344 C 107.023438 76.660156 107.167969 76.449219 107.351562 76.261719 C 107.539062 76.078125 107.75 75.933594 107.992188 75.835938 C 108.234375 75.734375 108.484375 75.683594 108.746094 75.683594 C 109.007812 75.683594 109.261719 75.734375 109.5 75.835938 C 109.742188 75.933594 109.957031 76.078125 110.140625 76.261719 C 110.328125 76.449219 110.46875 76.660156 110.570312 76.902344 C 110.667969 77.144531 110.71875 77.394531 110.71875 77.65625 Z M 110.71875 77.65625 " fill-opacity="1" fill-rule="nonzero"/><path fill="#8062d6" d="M 113.480469 68.980469 C 113.480469 69.242188 113.429688 69.492188 113.332031 69.734375 C 113.230469 69.976562 113.085938 70.1875 112.902344 70.375 C 112.71875 70.558594 112.503906 70.699219 112.261719 70.800781 C 112.019531 70.902344 111.769531 70.953125 111.507812 70.953125 C 111.246094 70.953125 110.996094 70.902344 110.753906 70.800781 C 110.511719 70.699219 110.296875 70.558594 110.113281 70.375 C 109.929688 70.1875 109.785156 69.976562 109.6875 69.734375 C 109.585938 69.492188 109.535156 69.242188 109.535156 68.980469 C 109.535156 68.71875 109.585938 68.464844 109.6875 68.222656 C 109.785156 67.984375 109.929688 67.769531 110.113281 67.585938 C 110.296875 67.398438 110.511719 67.257812 110.753906 67.15625 C 110.996094 67.058594 111.246094 67.007812 111.507812 67.007812 C 111.769531 67.007812 112.019531 67.058594 112.261719 67.15625 C 112.503906 67.257812 112.71875 67.398438 112.902344 67.585938 C 113.085938 67.769531 113.230469 67.984375 113.332031 68.222656 C 113.429688 68.464844 113.480469 68.71875 113.480469 68.980469 Z M 113.480469 68.980469 " fill-opacity="1" fill-rule="nonzero"/><path fill="#8062d6" d="M 119.003906 60.300781 C 119.003906 60.5625 118.953125 60.8125 118.851562 61.054688 C 118.753906 61.296875 118.609375 61.511719 118.425781 61.695312 C 118.242188 61.878906 118.027344 62.023438 117.785156 62.125 C 117.542969 62.222656 117.292969 62.273438 117.03125 62.273438 C 116.769531 62.273438 116.515625 62.222656 116.277344 62.125 C 116.035156 62.023438 115.820312 61.878906 115.636719 61.695312 C 115.449219 61.511719 115.308594 61.296875 115.207031 61.054688 C 115.109375 60.8125 115.058594 60.5625 115.058594 60.300781 C 115.058594 60.039062 115.109375 59.789062 115.207031 59.546875 C 115.308594 59.304688 115.449219 59.089844 115.636719 58.90625 C 115.820312 58.722656 116.035156 58.578125 116.277344 58.480469 C 116.515625 58.378906 116.769531 58.328125 117.03125 58.328125 C 117.292969 58.328125 117.542969 58.378906 117.785156 58.480469 C 118.027344 58.578125 118.242188 58.722656 118.425781 58.90625 C 118.609375 59.089844 118.753906 59.304688 118.851562 59.546875 C 118.953125 59.789062 119.003906 60.039062 119.003906 60.300781 Z M 119.003906 60.300781 " fill-opacity="1" fill-rule="nonzero"/><path fill="#8062d6" d="M 126.101562 53.199219 C 126.101562 53.460938 126.054688 53.714844 125.953125 53.957031 C 125.851562 54.195312 125.710938 54.410156 125.527344 54.59375 C 125.339844 54.78125 125.128906 54.921875 124.886719 55.023438 C 124.644531 55.125 124.390625 55.171875 124.132812 55.171875 C 123.871094 55.171875 123.617188 55.125 123.375 55.023438 C 123.132812 54.921875 122.921875 54.78125 122.734375 54.59375 C 122.550781 54.410156 122.410156 54.195312 122.308594 53.957031 C 122.207031 53.714844 122.160156 53.460938 122.160156 53.199219 C 122.160156 52.9375 122.207031 52.6875 122.308594 52.445312 C 122.410156 52.203125 122.550781 51.992188 122.734375 51.804688 C 122.921875 51.621094 123.132812 51.480469 123.375 51.378906 C 123.617188 51.277344 123.871094 51.230469 124.132812 51.230469 C 124.390625 51.230469 124.644531 51.277344 124.886719 51.378906 C 125.128906 51.480469 125.339844 51.621094 125.527344 51.804688 C 125.710938 51.992188 125.851562 52.203125 125.953125 52.445312 C 126.054688 52.6875 126.101562 52.9375 126.101562 53.199219 Z M 126.101562 53.199219 " fill-opacity="1" fill-rule="nonzero"/><path fill="#8062d6" d="M 133.992188 48.46875 C 133.992188 48.730469 133.941406 48.980469 133.84375 49.222656 C 133.742188 49.464844 133.597656 49.675781 133.414062 49.863281 C 133.230469 50.046875 133.015625 50.1875 132.773438 50.289062 C 132.53125 50.390625 132.28125 50.441406 132.019531 50.441406 C 131.757812 50.441406 131.507812 50.390625 131.265625 50.289062 C 131.023438 50.1875 130.808594 50.046875 130.625 49.863281 C 130.441406 49.675781 130.296875 49.464844 130.199219 49.222656 C 130.097656 48.980469 130.046875 48.730469 130.046875 48.46875 C 130.046875 48.207031 130.097656 47.953125 130.199219 47.710938 C 130.296875 47.472656 130.441406 47.257812 130.625 47.074219 C 130.808594 46.886719 131.023438 46.746094 131.265625 46.644531 C 131.507812 46.546875 131.757812 46.496094 132.019531 46.496094 C 132.28125 46.496094 132.53125 46.546875 132.773438 46.644531 C 133.015625 46.746094 133.230469 46.886719 133.414062 47.074219 C 133.597656 47.257812 133.742188 47.472656 133.84375 47.710938 C 133.941406 47.953125 133.992188 48.207031 133.992188 48.46875 Z M 133.992188 48.46875 " fill-opacity="1" fill-rule="nonzero"/><path fill="#8062d6" d="M 142.671875 46.101562 C 142.671875 46.363281 142.621094 46.613281 142.519531 46.855469 C 142.421875 47.097656 142.277344 47.308594 142.09375 47.496094 C 141.90625 47.679688 141.695312 47.824219 141.453125 47.921875 C 141.210938 48.023438 140.960938 48.074219 140.699219 48.074219 C 140.4375 48.074219 140.183594 48.023438 139.941406 47.921875 C 139.703125 47.824219 139.488281 47.679688 139.304688 47.496094 C 139.117188 47.308594 138.976562 47.097656 138.875 46.855469 C 138.777344 46.613281 138.726562 46.363281 138.726562 46.101562 C 138.726562 45.839844 138.777344 45.585938 138.875 45.347656 C 138.976562 45.105469 139.117188 44.890625 139.304688 44.707031 C 139.488281 44.519531 139.703125 44.378906 139.941406 44.277344 C 140.183594 44.179688 140.4375 44.128906 140.699219 44.128906 C 140.960938 44.128906 141.210938 44.179688 141.453125 44.277344 C 141.695312 44.378906 141.90625 44.519531 142.09375 44.707031 C 142.277344 44.890625 142.421875 45.105469 142.519531 45.347656 C 142.621094 45.585938 142.671875 45.839844 142.671875 46.101562 Z M 142.671875 46.101562 " fill-opacity="1" fill-rule="nonzero"/><path fill="#8062d6" d="M 109.535156 86.335938 C 109.535156 86.597656 109.484375 86.847656 109.386719 87.089844 C 109.285156 87.332031 109.144531 87.542969 108.957031 87.730469 C 108.773438 87.914062 108.558594 88.058594 108.320312 88.15625 C 108.078125 88.257812 107.824219 88.308594 107.5625 88.308594 C 107.300781 88.308594 107.050781 88.257812 106.808594 88.15625 C 106.566406 88.058594 106.355469 87.914062 106.167969 87.730469 C 105.984375 87.542969 105.839844 87.332031 105.742188 87.089844 C 105.640625 86.847656 105.589844 86.597656 105.589844 86.335938 C 105.589844 86.074219 105.640625 85.820312 105.742188 85.582031 C 105.839844 85.339844 105.984375 85.125 106.167969 84.941406 C 106.355469 84.753906 106.566406 84.613281 106.808594 84.511719 C 107.050781 84.414062 107.300781 84.363281 107.5625 84.363281 C 107.824219 84.363281 108.078125 84.414062 108.320312 84.511719 C 108.558594 84.613281 108.773438 84.753906 108.957031 84.941406 C 109.144531 85.125 109.285156 85.339844 109.386719 85.582031 C 109.484375 85.820312 109.535156 86.074219 109.535156 86.335938 Z M 109.535156 86.335938 " fill-opacity="1" fill-rule="nonzero"/><path fill="#d9d9d9" d="M 191.1875 103.691406 C 191.1875 103.953125 191.136719 104.203125 191.039062 104.445312 C 190.9375 104.6875 190.796875 104.902344 190.609375 105.085938 C 190.425781 105.269531 190.210938 105.414062 189.972656 105.511719 C 189.730469 105.613281 189.476562 105.664062 189.214844 105.664062 C 188.953125 105.664062 188.703125 105.613281 188.460938 105.511719 C 188.21875 105.414062 188.007812 105.269531 187.820312 105.085938 C 187.636719 104.902344 187.492188 104.6875 187.394531 104.445312 C 187.292969 104.203125 187.242188 103.953125 187.242188 103.691406 C 187.242188 103.429688 187.292969 103.179688 187.394531 102.9375 C 187.492188 102.695312 187.636719 102.480469 187.820312 102.296875 C 188.007812 102.113281 188.21875 101.96875 188.460938 101.867188 C 188.703125 101.769531 188.953125 101.71875 189.214844 101.71875 C 189.476562 101.71875 189.730469 101.769531 189.972656 101.867188 C 190.210938 101.96875 190.425781 102.113281 190.609375 102.296875 C 190.796875 102.480469 190.9375 102.695312 191.039062 102.9375 C 191.136719 103.179688 191.1875 103.429688 191.1875 103.691406 Z M 191.1875 103.691406 " fill-opacity="1" fill-rule="nonzero"/><path fill="#d9d9d9" d="M 193.554688 95.011719 C 193.554688 95.273438 193.503906 95.527344 193.40625 95.769531 C 193.304688 96.007812 193.164062 96.222656 192.976562 96.40625 C 192.792969 96.59375 192.578125 96.734375 192.335938 96.835938 C 192.097656 96.933594 191.84375 96.984375 191.582031 96.984375 C 191.320312 96.984375 191.070312 96.933594 190.828125 96.835938 C 190.585938 96.734375 190.375 96.59375 190.1875 96.40625 C 190.003906 96.222656 189.859375 96.007812 189.761719 95.769531 C 189.660156 95.527344 189.609375 95.273438 189.609375 95.011719 C 189.609375 94.75 189.660156 94.5 189.761719 94.257812 C 189.859375 94.015625 190.003906 93.804688 190.1875 93.617188 C 190.375 93.433594 190.585938 93.292969 190.828125 93.191406 C 191.070312 93.089844 191.320312 93.039062 191.582031 93.039062 C 191.84375 93.039062 192.097656 93.089844 192.335938 93.191406 C 192.578125 93.292969 192.792969 93.433594 192.976562 93.617188 C 193.164062 93.804688 193.304688 94.015625 193.40625 94.257812 C 193.503906 94.5 193.554688 94.75 193.554688 95.011719 Z M 193.554688 95.011719 " fill-opacity="1" fill-rule="nonzero"/><path fill="#d9d9d9" d="M 193.160156 77.65625 C 193.160156 77.917969 193.109375 78.171875 193.011719 78.410156 C 192.910156 78.652344 192.769531 78.867188 192.582031 79.050781 C 192.398438 79.238281 192.183594 79.378906 191.941406 79.480469 C 191.703125 79.578125 191.449219 79.628906 191.1875 79.628906 C 190.925781 79.628906 190.675781 79.578125 190.433594 79.480469 C 190.191406 79.378906 189.980469 79.238281 189.792969 79.050781 C 189.609375 78.867188 189.464844 78.652344 189.367188 78.410156 C 189.265625 78.171875 189.214844 77.917969 189.214844 77.65625 C 189.214844 77.394531 189.265625 77.144531 189.367188 76.902344 C 189.464844 76.660156 189.609375 76.449219 189.792969 76.261719 C 189.980469 76.078125 190.191406 75.933594 190.433594 75.835938 C 190.675781 75.734375 190.925781 75.683594 191.1875 75.683594 C 191.449219 75.683594 191.703125 75.734375 191.941406 75.835938 C 192.183594 75.933594 192.398438 76.078125 192.582031 76.261719 C 192.769531 76.449219 192.910156 76.660156 193.011719 76.902344 C 193.109375 77.144531 193.160156 77.394531 193.160156 77.65625 Z M 193.160156 77.65625 " fill-opacity="1" fill-rule="nonzero"/><path fill="#d9d9d9" d="M 190.398438 68.980469 C 190.398438 69.242188 190.347656 69.492188 190.25 69.734375 C 190.148438 69.976562 190.007812 70.1875 189.820312 70.375 C 189.636719 70.558594 189.421875 70.699219 189.183594 70.800781 C 188.941406 70.902344 188.6875 70.953125 188.425781 70.953125 C 188.164062 70.953125 187.914062 70.902344 187.671875 70.800781 C 187.429688 70.699219 187.21875 70.558594 187.03125 70.375 C 186.847656 70.1875 186.707031 69.976562 186.605469 69.734375 C 186.503906 69.492188 186.453125 69.242188 186.453125 68.980469 C 186.453125 68.71875 186.503906 68.464844 186.605469 68.222656 C 186.707031 67.984375 186.847656 67.769531 187.03125 67.585938 C 187.21875 67.398438 187.429688 67.257812 187.671875 67.15625 C 187.914062 67.058594 188.164062 67.007812 188.425781 67.007812 C 188.6875 67.007812 188.941406 67.058594 189.183594 67.15625 C 189.421875 67.257812 189.636719 67.398438 189.820312 67.585938 C 190.007812 67.769531 190.148438 67.984375 190.25 68.222656 C 190.347656 68.464844 190.398438 68.71875 190.398438 68.980469 Z M 190.398438 68.980469 " fill-opacity="1" fill-rule="nonzero"/><path fill="#d9d9d9" d="M 185.273438 60.300781 C 185.273438 60.5625 185.222656 60.8125 185.121094 61.054688 C 185.019531 61.296875 184.878906 61.511719 184.695312 61.695312 C 184.507812 61.878906 184.296875 62.023438 184.054688 62.125 C 183.8125 62.222656 183.5625 62.273438 183.300781 62.273438 C 183.039062 62.273438 182.785156 62.222656 182.542969 62.125 C 182.304688 62.023438 182.089844 61.878906 181.90625 61.695312 C 181.71875 61.511719 181.578125 61.296875 181.476562 61.054688 C 181.378906 60.8125 181.328125 60.5625 181.328125 60.300781 C 181.328125 60.039062 181.378906 59.789062 181.476562 59.546875 C 181.578125 59.304688 181.71875 59.089844 181.90625 58.90625 C 182.089844 58.722656 182.304688 58.578125 182.542969 58.480469 C 182.785156 58.378906 183.039062 58.328125 183.300781 58.328125 C 183.5625 58.328125 183.8125 58.378906 184.054688 58.480469 C 184.296875 58.578125 184.507812 58.722656 184.695312 58.90625 C 184.878906 59.089844 185.019531 59.304688 185.121094 59.546875 C 185.222656 59.789062 185.273438 60.039062 185.273438 60.300781 Z M 185.273438 60.300781 " fill-opacity="1" fill-rule="nonzero"/><path fill="#d9d9d9" d="M 178.566406 54.382812 C 178.566406 54.644531 178.515625 54.898438 178.414062 55.140625 C 178.316406 55.378906 178.171875 55.59375 177.988281 55.777344 C 177.804688 55.964844 177.589844 56.105469 177.347656 56.207031 C 177.105469 56.304688 176.855469 56.355469 176.59375 56.355469 C 176.332031 56.355469 176.082031 56.304688 175.839844 56.207031 C 175.597656 56.105469 175.382812 55.964844 175.199219 55.777344 C 175.015625 55.59375 174.871094 55.378906 174.769531 55.140625 C 174.671875 54.898438 174.621094 54.644531 174.621094 54.382812 C 174.621094 54.121094 174.671875 53.871094 174.769531 53.628906 C 174.871094 53.386719 175.015625 53.175781 175.199219 52.988281 C 175.382812 52.804688 175.597656 52.664062 175.839844 52.5625 C 176.082031 52.460938 176.332031 52.410156 176.59375 52.410156 C 176.855469 52.410156 177.105469 52.460938 177.347656 52.5625 C 177.589844 52.664062 177.804688 52.804688 177.988281 52.988281 C 178.171875 53.175781 178.316406 53.386719 178.414062 53.628906 C 178.515625 53.871094 178.566406 54.121094 178.566406 54.382812 Z M 178.566406 54.382812 " fill-opacity="1" fill-rule="nonzero"/><path fill="#d9d9d9" d="M 171.464844 49.652344 C 171.464844 49.914062 171.414062 50.164062 171.316406 50.40625 C 171.214844 50.648438 171.074219 50.859375 170.886719 51.046875 C 170.703125 51.230469 170.488281 51.371094 170.25 51.472656 C 170.007812 51.574219 169.753906 51.621094 169.492188 51.621094 C 169.230469 51.621094 168.980469 51.574219 168.738281 51.472656 C 168.496094 51.371094 168.285156 51.230469 168.097656 51.046875 C 167.914062 50.859375 167.769531 50.648438 167.671875 50.40625 C 167.570312 50.164062 167.519531 49.914062 167.519531 49.652344 C 167.519531 49.390625 167.570312 49.136719 167.671875 48.894531 C 167.769531 48.65625 167.914062 48.441406 168.097656 48.257812 C 168.285156 48.070312 168.496094 47.929688 168.738281 47.828125 C 168.980469 47.726562 169.230469 47.679688 169.492188 47.679688 C 169.753906 47.679688 170.007812 47.726562 170.25 47.828125 C 170.488281 47.929688 170.703125 48.070312 170.886719 48.257812 C 171.074219 48.441406 171.214844 48.65625 171.316406 48.894531 C 171.414062 49.136719 171.464844 49.390625 171.464844 49.652344 Z M 171.464844 49.652344 " fill-opacity="1" fill-rule="nonzero"/><path fill="#d9d9d9" d="M 162 46.101562 C 162 46.363281 161.949219 46.613281 161.847656 46.855469 C 161.75 47.097656 161.605469 47.308594 161.421875 47.496094 C 161.234375 47.679688 161.023438 47.824219 160.78125 47.921875 C 160.539062 48.023438 160.289062 48.074219 160.027344 48.074219 C 159.765625 48.074219 159.511719 48.023438 159.273438 47.921875 C 159.03125 47.824219 158.816406 47.679688 158.632812 47.496094 C 158.445312 47.308594 158.304688 47.097656 158.203125 46.855469 C 158.105469 46.613281 158.054688 46.363281 158.054688 46.101562 C 158.054688 45.839844 158.105469 45.585938 158.203125 45.347656 C 158.304688 45.105469 158.445312 44.890625 158.632812 44.707031 C 158.816406 44.519531 159.03125 44.378906 159.273438 44.277344 C 159.511719 44.179688 159.765625 44.128906 160.027344 44.128906 C 160.289062 44.128906 160.539062 44.179688 160.78125 44.277344 C 161.023438 44.378906 161.234375 44.519531 161.421875 44.707031 C 161.605469 44.890625 161.75 45.105469 161.847656 45.347656 C 161.949219 45.585938 162 45.839844 162 46.101562 Z M 162 46.101562 " fill-opacity="1" fill-rule="nonzero"/><path fill="#8062d6" d="M 152.136719 44.523438 C 152.136719 44.785156 152.085938 45.035156 151.988281 45.277344 C 151.886719 45.519531 151.746094 45.734375 151.558594 45.917969 C 151.375 46.101562 151.160156 46.246094 150.917969 46.34375 C 150.679688 46.445312 150.425781 46.496094 150.164062 46.496094 C 149.902344 46.496094 149.652344 46.445312 149.410156 46.34375 C 149.167969 46.246094 148.957031 46.101562 148.769531 45.917969 C 148.585938 45.734375 148.441406 45.519531 148.34375 45.277344 C 148.242188 45.035156 148.191406 44.785156 148.191406 44.523438 C 148.191406 44.261719 148.242188 44.007812 148.34375 43.769531 C 148.441406 43.527344 148.585938 43.3125 148.769531 43.128906 C 148.957031 42.941406 149.167969 42.800781 149.410156 42.699219 C 149.652344 42.601562 149.902344 42.550781 150.164062 42.550781 C 150.425781 42.550781 150.679688 42.601562 150.917969 42.699219 C 151.160156 42.800781 151.375 42.941406 151.558594 43.128906 C 151.746094 43.3125 151.886719 43.527344 151.988281 43.769531 C 152.085938 44.007812 152.136719 44.261719 152.136719 44.523438 Z M 152.136719 44.523438 " fill-opacity="1" fill-rule="nonzero"/><path fill="#d9d9d9" d="M 194.738281 86.335938 C 194.738281 86.597656 194.6875 86.847656 194.589844 87.089844 C 194.488281 87.332031 194.347656 87.542969 194.160156 87.730469 C 193.976562 87.914062 193.761719 88.058594 193.519531 88.15625 C 193.28125 88.257812 193.027344 88.308594 192.765625 88.308594 C 192.503906 88.308594 192.253906 88.257812 192.011719 88.15625 C 191.769531 88.058594 191.554688 87.914062 191.371094 87.730469 C 191.1875 87.542969 191.042969 87.332031 190.945312 87.089844 C 190.84375 86.847656 190.792969 86.597656 190.792969 86.335938 C 190.792969 86.074219 190.84375 85.820312 190.945312 85.582031 C 191.042969 85.339844 191.1875 85.125 191.371094 84.941406 C 191.554688 84.753906 191.769531 84.613281 192.011719 84.511719 C 192.253906 84.414062 192.503906 84.363281 192.765625 84.363281 C 193.027344 84.363281 193.28125 84.414062 193.519531 84.511719 C 193.761719 84.613281 193.976562 84.753906 194.160156 84.941406 C 194.347656 85.125 194.488281 85.339844 194.589844 85.582031 C 194.6875 85.820312 194.738281 86.074219 194.738281 86.335938 Z M 194.738281 86.335938 " fill-opacity="1" fill-rule="nonzero"/><path fill="#8062d6" d="M 181.328125 87.320312 C 181.328125 88.347656 181.277344 89.371094 181.175781 90.394531 C 181.074219 91.417969 180.925781 92.433594 180.722656 93.4375 C 180.523438 94.445312 180.273438 95.441406 179.976562 96.425781 C 179.679688 97.40625 179.332031 98.375 178.941406 99.320312 C 178.546875 100.269531 178.109375 101.199219 177.625 102.105469 C 177.140625 103.007812 176.613281 103.890625 176.042969 104.742188 C 175.472656 105.597656 174.859375 106.421875 174.207031 107.214844 C 173.558594 108.007812 172.867188 108.769531 172.140625 109.496094 C 171.414062 110.222656 170.65625 110.910156 169.863281 111.5625 C 169.066406 112.214844 168.242188 112.824219 167.390625 113.394531 C 166.535156 113.964844 165.65625 114.492188 164.75 114.976562 C 163.84375 115.460938 162.917969 115.902344 161.96875 116.292969 C 161.019531 116.6875 160.054688 117.03125 159.070312 117.332031 C 158.089844 117.628906 157.09375 117.878906 156.085938 118.078125 C 155.078125 118.277344 154.0625 118.429688 153.042969 118.53125 C 152.019531 118.628906 150.996094 118.679688 149.96875 118.679688 C 148.941406 118.679688 147.917969 118.628906 146.894531 118.53125 C 145.871094 118.429688 144.855469 118.277344 143.851562 118.078125 C 142.84375 117.878906 141.847656 117.628906 140.863281 117.332031 C 139.882812 117.03125 138.914062 116.6875 137.96875 116.292969 C 137.019531 115.902344 136.089844 115.460938 135.183594 114.976562 C 134.28125 114.492188 133.398438 113.964844 132.546875 113.394531 C 131.691406 112.824219 130.867188 112.214844 130.074219 111.5625 C 129.28125 110.910156 128.519531 110.222656 127.792969 109.496094 C 127.066406 108.769531 126.378906 108.007812 125.726562 107.214844 C 125.074219 106.421875 124.464844 105.597656 123.894531 104.742188 C 123.324219 103.890625 122.796875 103.007812 122.3125 102.105469 C 121.828125 101.199219 121.386719 100.269531 120.996094 99.320312 C 120.601562 98.375 120.257812 97.40625 119.957031 96.425781 C 119.660156 95.441406 119.410156 94.445312 119.210938 93.4375 C 119.011719 92.433594 118.859375 91.417969 118.757812 90.394531 C 118.660156 89.371094 118.609375 88.347656 118.609375 87.320312 C 118.609375 86.292969 118.660156 85.269531 118.757812 84.246094 C 118.859375 83.226562 119.011719 82.210938 119.210938 81.203125 C 119.410156 80.195312 119.660156 79.199219 119.957031 78.21875 C 120.257812 77.234375 120.601562 76.269531 120.996094 75.320312 C 121.386719 74.371094 121.828125 73.445312 122.3125 72.539062 C 122.796875 71.632812 123.324219 70.753906 123.894531 69.898438 C 124.464844 69.046875 125.074219 68.222656 125.726562 67.425781 C 126.378906 66.632812 127.066406 65.875 127.792969 65.148438 C 128.519531 64.421875 129.28125 63.730469 130.074219 63.082031 C 130.867188 62.429688 131.691406 61.816406 132.546875 61.246094 C 133.398438 60.675781 134.28125 60.148438 135.183594 59.664062 C 136.089844 59.179688 137.019531 58.742188 137.96875 58.347656 C 138.914062 57.957031 139.882812 57.609375 140.863281 57.3125 C 141.847656 57.015625 142.84375 56.765625 143.851562 56.566406 C 144.855469 56.363281 145.871094 56.214844 146.894531 56.113281 C 147.917969 56.011719 148.941406 55.960938 149.96875 55.960938 C 150.996094 55.960938 152.019531 56.011719 153.042969 56.113281 C 154.0625 56.214844 155.078125 56.363281 156.085938 56.566406 C 157.09375 56.765625 158.089844 57.015625 159.070312 57.3125 C 160.054688 57.609375 161.019531 57.957031 161.96875 58.347656 C 162.917969 58.742188 163.84375 59.179688 164.75 59.664062 C 165.65625 60.148438 166.535156 60.675781 167.390625 61.246094 C 168.242188 61.816406 169.066406 62.429688 169.863281 63.082031 C 170.65625 63.730469 171.414062 64.421875 172.140625 65.148438 C 172.867188 65.875 173.558594 66.632812 174.207031 67.425781 C 174.859375 68.222656 175.472656 69.046875 176.042969 69.898438 C 176.613281 70.753906 177.140625 71.632812 177.625 72.539062 C 178.109375 73.445312 178.546875 74.371094 178.941406 75.320312 C 179.332031 76.269531 179.679688 77.234375 179.976562 78.21875 C 180.273438 79.199219 180.523438 80.195312 180.722656 81.203125 C 180.925781 82.210938 181.074219 83.226562 181.175781 84.246094 C 181.277344 85.269531 181.328125 86.292969 181.328125 87.320312 Z M 181.328125 87.320312 " fill-opacity="1" fill-rule="nonzero"/><path fill="#ffffff" d="M 145.035156 70.164062 C 145.035156 70.523438 145 70.882812 144.929688 71.238281 C 144.859375 71.59375 144.753906 71.941406 144.617188 72.277344 C 144.476562 72.609375 144.308594 72.929688 144.105469 73.230469 C 143.90625 73.53125 143.675781 73.8125 143.417969 74.066406 C 143.164062 74.324219 142.882812 74.550781 142.582031 74.753906 C 142.28125 74.957031 141.964844 75.125 141.628906 75.265625 C 141.292969 75.402344 140.949219 75.507812 140.59375 75.578125 C 140.238281 75.648438 139.878906 75.683594 139.515625 75.683594 C 139.152344 75.683594 138.792969 75.648438 138.4375 75.578125 C 138.082031 75.507812 137.738281 75.402344 137.402344 75.265625 C 137.066406 75.125 136.75 74.957031 136.445312 74.753906 C 136.144531 74.550781 135.867188 74.324219 135.609375 74.066406 C 135.351562 73.8125 135.125 73.53125 134.921875 73.230469 C 134.722656 72.929688 134.550781 72.609375 134.414062 72.277344 C 134.273438 71.941406 134.167969 71.59375 134.097656 71.238281 C 134.027344 70.882812 133.992188 70.523438 133.992188 70.164062 C 133.992188 69.800781 134.027344 69.441406 134.097656 69.085938 C 134.167969 68.730469 134.273438 68.382812 134.414062 68.050781 C 134.550781 67.714844 134.722656 67.394531 134.921875 67.09375 C 135.125 66.792969 135.351562 66.515625 135.609375 66.257812 C 135.867188 66 136.144531 65.773438 136.445312 65.570312 C 136.75 65.371094 137.066406 65.199219 137.402344 65.058594 C 137.738281 64.921875 138.082031 64.816406 138.4375 64.746094 C 138.792969 64.675781 139.152344 64.640625 139.515625 64.640625 C 139.878906 64.640625 140.238281 64.675781 140.59375 64.746094 C 140.949219 64.816406 141.292969 64.921875 141.628906 65.058594 C 141.964844 65.199219 142.28125 65.371094 142.582031 65.570312 C 142.882812 65.773438 143.164062 66 143.417969 66.257812 C 143.675781 66.515625 143.90625 66.792969 144.105469 67.09375 C 144.308594 67.394531 144.476562 67.714844 144.617188 68.050781 C 144.753906 68.382812 144.859375 68.730469 144.929688 69.085938 C 145 69.441406 145.035156 69.800781 145.035156 70.164062 Z M 145.035156 70.164062 " fill-opacity="1" fill-rule="nonzero"/><g fill="#8c6fdd" fill-opacity="1"><g transform="translate(103.970339, 141.373373)"><g><path d="M 1.40625 0 L 1.40625 -10.8125 L 5.75 -10.8125 C 6.875 -10.8125 7.71875 -10.550781 8.28125 -10.03125 C 8.851562 -9.519531 9.140625 -8.8125 9.140625 -7.90625 C 9.140625 -7.25 8.972656 -6.710938 8.640625 -6.296875 C 8.304688 -5.878906 7.8125 -5.554688 7.15625 -5.328125 L 7.15625 -5.1875 C 7.488281 -5.03125 7.757812 -4.804688 7.96875 -4.515625 C 8.175781 -4.222656 8.375 -3.796875 8.5625 -3.234375 L 9.65625 0 L 7.453125 0 L 6.390625 -3.234375 C 6.285156 -3.554688 6.164062 -3.804688 6.03125 -3.984375 C 5.894531 -4.171875 5.71875 -4.300781 5.5 -4.375 C 5.289062 -4.457031 5.019531 -4.5 4.6875 -4.5 L 3.546875 -4.5 L 3.546875 0 Z M 5.484375 -6.203125 C 6.523438 -6.203125 7.046875 -6.6875 7.046875 -7.65625 C 7.046875 -8.632812 6.523438 -9.125 5.484375 -9.125 L 3.546875 -9.125 L 3.546875 -6.203125 Z M 5.484375 -6.203125 "/></g></g></g><g fill="#8c6fdd" fill-opacity="1"><g transform="translate(114.078208, 141.373373)"><g><path d="M 4.75 0.15625 C 3.945312 0.15625 3.242188 -0.00390625 2.640625 -0.328125 C 2.035156 -0.660156 1.566406 -1.144531 1.234375 -1.78125 C 0.898438 -2.414062 0.734375 -3.179688 0.734375 -4.078125 C 0.734375 -4.972656 0.898438 -5.738281 1.234375 -6.375 C 1.566406 -7.007812 2.035156 -7.488281 2.640625 -7.8125 C 3.242188 -8.144531 3.945312 -8.3125 4.75 -8.3125 C 5.539062 -8.3125 6.238281 -8.144531 6.84375 -7.8125 C 7.445312 -7.488281 7.914062 -7.007812 8.25 -6.375 C 8.59375 -5.738281 8.765625 -4.972656 8.765625 -4.078125 C 8.765625 -3.179688 8.59375 -2.414062 8.25 -1.78125 C 7.914062 -1.144531 7.445312 -0.660156 6.84375 -0.328125 C 6.238281 -0.00390625 5.539062 0.15625 4.75 0.15625 Z M 4.75 -1.578125 C 6.007812 -1.578125 6.640625 -2.410156 6.640625 -4.078125 C 6.640625 -4.941406 6.476562 -5.570312 6.15625 -5.96875 C 5.832031 -6.375 5.363281 -6.578125 4.75 -6.578125 C 3.476562 -6.578125 2.84375 -5.742188 2.84375 -4.078125 C 2.84375 -2.410156 3.476562 -1.578125 4.75 -1.578125 Z M 4.75 -1.578125 "/></g></g></g><g fill="#8c6fdd" fill-opacity="1"><g transform="translate(123.557563, 141.373373)"><g><path d="M 5.625 -1.953125 L 6.171875 -0.421875 C 5.941406 -0.242188 5.660156 -0.101562 5.328125 0 C 4.992188 0.101562 4.613281 0.15625 4.1875 0.15625 C 3.300781 0.15625 2.628906 -0.0820312 2.171875 -0.5625 C 1.710938 -1.039062 1.484375 -1.742188 1.484375 -2.671875 L 1.484375 -6.546875 L 0.25 -6.546875 L 0.25 -8.171875 L 1.484375 -8.171875 L 1.484375 -9.765625 L 3.53125 -10.09375 L 3.53125 -8.171875 L 5.859375 -8.171875 L 5.859375 -6.546875 L 3.53125 -6.546875 L 3.53125 -2.8125 C 3.53125 -2.40625 3.613281 -2.109375 3.78125 -1.921875 C 3.957031 -1.742188 4.203125 -1.65625 4.515625 -1.65625 C 4.878906 -1.65625 5.195312 -1.753906 5.46875 -1.953125 Z M 5.625 -1.953125 "/></g></g></g><g fill="#8c6fdd" fill-opacity="1"><g transform="translate(129.894394, 141.373373)"><g><path d="M 3.1875 0.15625 C 2.65625 0.15625 2.195312 0.0625 1.8125 -0.125 C 1.4375 -0.320312 1.144531 -0.609375 0.9375 -0.984375 C 0.726562 -1.359375 0.625 -1.804688 0.625 -2.328125 C 0.625 -2.804688 0.726562 -3.207031 0.9375 -3.53125 C 1.144531 -3.863281 1.460938 -4.132812 1.890625 -4.34375 C 2.328125 -4.550781 2.894531 -4.710938 3.59375 -4.828125 C 4.082031 -4.910156 4.453125 -5 4.703125 -5.09375 C 4.960938 -5.1875 5.132812 -5.289062 5.21875 -5.40625 C 5.3125 -5.53125 5.359375 -5.679688 5.359375 -5.859375 C 5.359375 -6.117188 5.265625 -6.316406 5.078125 -6.453125 C 4.898438 -6.597656 4.597656 -6.671875 4.171875 -6.671875 C 3.722656 -6.671875 3.289062 -6.566406 2.875 -6.359375 C 2.46875 -6.160156 2.113281 -5.894531 1.8125 -5.5625 L 1.671875 -5.5625 L 0.8125 -6.859375 C 1.21875 -7.316406 1.71875 -7.671875 2.3125 -7.921875 C 2.914062 -8.179688 3.570312 -8.3125 4.28125 -8.3125 C 5.351562 -8.3125 6.128906 -8.082031 6.609375 -7.625 C 7.097656 -7.164062 7.34375 -6.515625 7.34375 -5.671875 L 7.34375 -2.125 C 7.34375 -1.757812 7.503906 -1.578125 7.828125 -1.578125 C 7.953125 -1.578125 8.070312 -1.601562 8.1875 -1.65625 L 8.296875 -1.625 L 8.4375 -0.1875 C 8.332031 -0.113281 8.175781 -0.0507812 7.96875 0 C 7.769531 0.0390625 7.546875 0.0625 7.296875 0.0625 C 6.816406 0.0625 6.4375 -0.03125 6.15625 -0.21875 C 5.882812 -0.40625 5.691406 -0.703125 5.578125 -1.109375 L 5.421875 -1.125 C 5.015625 -0.269531 4.269531 0.15625 3.1875 0.15625 Z M 3.828125 -1.375 C 4.304688 -1.375 4.6875 -1.53125 4.96875 -1.84375 C 5.25 -2.164062 5.390625 -2.613281 5.390625 -3.1875 L 5.390625 -4.015625 L 5.25 -4.046875 C 5.125 -3.941406 4.960938 -3.851562 4.765625 -3.78125 C 4.566406 -3.71875 4.28125 -3.65625 3.90625 -3.59375 C 3.457031 -3.519531 3.132812 -3.394531 2.9375 -3.21875 C 2.75 -3.039062 2.65625 -2.785156 2.65625 -2.453125 C 2.65625 -2.097656 2.757812 -1.828125 2.96875 -1.640625 C 3.175781 -1.460938 3.460938 -1.375 3.828125 -1.375 Z M 3.828125 -1.375 "/></g></g></g><g fill="#8c6fdd" fill-opacity="1"><g transform="translate(138.493848, 141.373373)"><g><path d="M 1.171875 0 L 1.171875 -8.15625 L 3.171875 -8.15625 L 3.171875 -6.953125 L 3.328125 -6.921875 C 3.523438 -7.367188 3.78125 -7.695312 4.09375 -7.90625 C 4.414062 -8.125 4.804688 -8.234375 5.265625 -8.234375 C 5.734375 -8.234375 6.085938 -8.15625 6.328125 -8 L 5.984375 -6.234375 L 5.828125 -6.203125 C 5.691406 -6.253906 5.5625 -6.289062 5.4375 -6.3125 C 5.3125 -6.34375 5.160156 -6.359375 4.984375 -6.359375 C 4.410156 -6.359375 3.972656 -6.15625 3.671875 -5.75 C 3.378906 -5.351562 3.234375 -4.707031 3.234375 -3.8125 L 3.234375 0 Z M 1.171875 0 "/></g></g></g><g fill="#8c6fdd" fill-opacity="1"><g transform="translate(144.889833, 141.373373)"><g><path d="M 1.8125 3.46875 C 1.457031 3.46875 1.132812 3.4375 0.84375 3.375 C 0.5625 3.320312 0.332031 3.253906 0.15625 3.171875 L 0.484375 1.515625 L 0.625 1.46875 C 0.75 1.53125 0.898438 1.582031 1.078125 1.625 C 1.265625 1.664062 1.453125 1.6875 1.640625 1.6875 C 1.972656 1.6875 2.25 1.640625 2.46875 1.546875 C 2.6875 1.460938 2.867188 1.320312 3.015625 1.125 C 3.171875 0.925781 3.3125 0.644531 3.4375 0.28125 L 0.171875 -8.15625 L 2.328125 -8.15625 L 4.34375 -2.484375 L 4.53125 -2.484375 L 6.5 -8.15625 L 8.59375 -8.15625 L 5.3125 0.515625 C 5.050781 1.210938 4.765625 1.773438 4.453125 2.203125 C 4.140625 2.628906 3.769531 2.945312 3.34375 3.15625 C 2.914062 3.363281 2.40625 3.46875 1.8125 3.46875 Z M 1.8125 3.46875 "/></g></g></g><g fill="#8c6fdd" fill-opacity="1"><g transform="translate(153.644556, 141.373373)"><g/></g></g><g fill="#8c6fdd" fill-opacity="1"><g transform="translate(157.215959, 141.373373)"><g><path d="M 1.40625 0 L 1.40625 -10.8125 L 3.546875 -10.8125 L 3.546875 -6.40625 L 3.78125 -6.40625 L 7.390625 -10.8125 L 9.578125 -10.8125 L 9.578125 -10.640625 L 5.609375 -5.71875 L 10 -0.1875 L 10 0 L 7.578125 0 L 3.78125 -4.671875 L 3.546875 -4.671875 L 3.546875 0 Z M 1.40625 0 "/></g></g></g><g fill="#8c6fdd" fill-opacity="1"><g transform="translate(167.205521, 141.373373)"><g><path d="M 1.171875 0 L 1.171875 -8.15625 L 3.140625 -8.15625 L 3.140625 -6.96875 L 3.296875 -6.921875 C 3.804688 -7.847656 4.628906 -8.3125 5.765625 -8.3125 C 6.710938 -8.3125 7.40625 -8.054688 7.84375 -7.546875 C 8.289062 -7.035156 8.515625 -6.289062 8.515625 -5.3125 L 8.515625 0 L 6.453125 0 L 6.453125 -5.046875 C 6.453125 -5.597656 6.34375 -5.992188 6.125 -6.234375 C 5.914062 -6.472656 5.570312 -6.59375 5.09375 -6.59375 C 4.5 -6.59375 4.039062 -6.398438 3.71875 -6.015625 C 3.394531 -5.640625 3.234375 -5.039062 3.234375 -4.21875 L 3.234375 0 Z M 1.171875 0 "/></g></g></g><g fill="#8c6fdd" fill-opacity="1"><g transform="translate(176.758818, 141.373373)"><g><path d="M 4.75 0.15625 C 3.945312 0.15625 3.242188 -0.00390625 2.640625 -0.328125 C 2.035156 -0.660156 1.566406 -1.144531 1.234375 -1.78125 C 0.898438 -2.414062 0.734375 -3.179688 0.734375 -4.078125 C 0.734375 -4.972656 0.898438 -5.738281 1.234375 -6.375 C 1.566406 -7.007812 2.035156 -7.488281 2.640625 -7.8125 C 3.242188 -8.144531 3.945312 -8.3125 4.75 -8.3125 C 5.539062 -8.3125 6.238281 -8.144531 6.84375 -7.8125 C 7.445312 -7.488281 7.914062 -7.007812 8.25 -6.375 C 8.59375 -5.738281 8.765625 -4.972656 8.765625 -4.078125 C 8.765625 -3.179688 8.59375 -2.414062 8.25 -1.78125 C 7.914062 -1.144531 7.445312 -0.660156 6.84375 -0.328125 C 6.238281 -0.00390625 5.539062 0.15625 4.75 0.15625 Z M 4.75 -1.578125 C 6.007812 -1.578125 6.640625 -2.410156 6.640625 -4.078125 C 6.640625 -4.941406 6.476562 -5.570312 6.15625 -5.96875 C 5.832031 -6.375 5.363281 -6.578125 4.75 -6.578125 C 3.476562 -6.578125 2.84375 -5.742188 2.84375 -4.078125 C 2.84375 -2.410156 3.476562 -1.578125 4.75 -1.578125 Z M 4.75 -1.578125 "/></g></g></g><g fill="#8c6fdd" fill-opacity="1"><g transform="translate(186.238173, 141.373373)"><g><path d="M 5.703125 0.15625 C 4.660156 0.15625 3.882812 -0.234375 3.375 -1.015625 L 3.234375 -0.984375 L 3.234375 0 L 1.171875 0 L 1.171875 -11.4375 L 3.234375 -11.4375 L 3.234375 -7.203125 L 3.375 -7.171875 C 3.65625 -7.554688 3.988281 -7.84375 4.375 -8.03125 C 4.757812 -8.21875 5.21875 -8.3125 5.75 -8.3125 C 6.40625 -8.3125 6.976562 -8.15625 7.46875 -7.84375 C 7.96875 -7.539062 8.351562 -7.070312 8.625 -6.4375 C 8.90625 -5.800781 9.046875 -5.015625 9.046875 -4.078125 C 9.046875 -3.148438 8.898438 -2.367188 8.609375 -1.734375 C 8.328125 -1.097656 7.9375 -0.625 7.4375 -0.3125 C 6.9375 0 6.359375 0.15625 5.703125 0.15625 Z M 5.078125 -1.578125 C 5.679688 -1.578125 6.140625 -1.78125 6.453125 -2.1875 C 6.773438 -2.59375 6.9375 -3.222656 6.9375 -4.078125 C 6.9375 -4.941406 6.773438 -5.570312 6.453125 -5.96875 C 6.140625 -6.375 5.679688 -6.578125 5.078125 -6.578125 C 4.503906 -6.578125 4.046875 -6.367188 3.703125 -5.953125 C 3.367188 -5.535156 3.203125 -4.910156 3.203125 -4.078125 C 3.203125 -3.234375 3.367188 -2.601562 3.703125 -2.1875 C 4.046875 -1.78125 4.503906 -1.578125 5.078125 -1.578125 Z M 5.078125 -1.578125 "/></g></g></g></svg>